<?xml version="1.0" encoding="UTF-8" standalone="no"?>
<svg width="306px" height="80px" viewBox="0 0 306 80" version="1.1" xmlns="http://www.w3.org/2000/svg" xmlns:xlink="http://www.w3.org/1999/xlink" xmlns:sketch="http://www.bohemiancoding.com/sketch/ns">
    <!-- Generator: Sketch 3.4 (15575) - http://www.bohemiancoding.com/sketch -->
    <title>logo-baseline</title>
    <desc>Created with Sketch.</desc>
    <defs></defs>
    <g id="Page-1" stroke="none" stroke-width="1" fill="none" fill-rule="evenodd" sketch:type="MSPage">
        <g id="Artboard-1" sketch:type="MSArtboardGroup" transform="translate(-75.000000, -93.000000)">
            <g id="logo-baseline" sketch:type="MSLayerGroup" transform="translate(75.000000, 93.000000)">
                <g id="TheRefinery-master-logo-02" sketch:type="MSShapeGroup">
                    <path d="M21.958,0.838 L36.46,12.44 L21.958,24.042 L21.958,0.838" id="Fill-1" fill="#DC3641"></path>
                    <path d="M36.46,12.44 L7.455,35.644 L7.455,53.692 L36.46,30.488 L36.46,12.44" id="Fill-2" fill="#A22B30"></path>
                    <path d="M7.455,53.692 L21.958,65.294 L36.46,53.692 L36.46,30.488 L7.455,53.692" id="Fill-3" fill="#DC3641"></path>
                    <path d="M0.204,71.095 L43.712,71.095 L43.712,79.796 L0.204,79.796 L0.204,71.095 Z" id="Fill-4" fill="#0F182A"></path>
                    <path d="M64,71 L306,71 L306,79.701 L64,79.701 L64,71 Z" id="Fill-4-Copy" fill="#0F182A"></path>
                </g>
                <path d="M64,53.517532 L64,12.7709769 L70.1225394,12.7709769 C72.8495461,12.7709769 75.0223221,12.9820968 76.6409326,13.404343 C78.2771366,13.8265892 79.6582129,14.539119 80.7842028,15.5419537 C81.9277862,16.5799757 82.8338426,17.8730853 83.5023991,19.4213214 C84.1885492,20.987151 84.5316191,22.5705506 84.5316191,24.1715674 C84.5316191,27.0921037 83.4144428,29.5639663 81.1800566,31.5872293 C83.3440684,32.3261602 85.0506212,33.6192698 86.2997662,35.4665969 C87.5665049,37.2963305 88.1998647,39.4251232 88.1998647,41.8530389 C88.1998647,45.037479 87.0738917,47.7292582 84.8219119,49.9284572 C83.4672053,51.2831638 81.9453825,52.2244068 80.2563976,52.7522146 C78.4090705,53.2624287 76.0955479,53.517532 73.3157603,53.517532 L64,53.517532 Z M70.1489296,30.2677165 L72.0754183,30.2677165 C74.3625853,30.2677165 76.0383497,29.7619084 77.1027621,28.7502768 C78.1671744,27.7386453 78.6993725,26.2476107 78.6993725,24.2771284 C78.6993725,22.3594269 78.1539794,20.903579 77.0631767,19.9095411 C75.972374,18.9155031 74.3889745,18.4184916 72.3129306,18.4184916 L70.1489296,18.4184916 L70.1489296,30.2677165 Z M70.1489296,47.7380659 L73.9491265,47.7380659 C76.728914,47.7380659 78.76974,47.1926728 80.0716658,46.1018701 C81.443966,44.9230994 82.1301058,43.4276665 82.1301058,41.6155266 C82.1301058,39.8561674 81.470356,38.3783278 80.1508366,37.1819636 C78.8665044,36.0031929 76.5705751,35.4138164 73.2629798,35.4138164 L70.1489296,35.4138164 L70.1489296,47.7380659 Z M119.287586,43.621186 L101.843627,43.621186 L97.304503,53.517532 L90.6805487,53.517532 L110.842704,10.211122 L130.292323,53.517532 L123.562808,53.517532 L119.287586,43.621186 Z M116.780512,37.84172 L110.737143,23.9868356 L104.403482,37.84172 L116.780512,37.84172 Z M158.424336,18.8407357 L153.436577,21.7964444 C152.504117,20.1778339 151.615654,19.1222343 150.771161,18.6296137 C149.891482,18.0666187 148.756712,17.7851255 147.366818,17.7851255 C145.66024,17.7851255 144.243977,18.268942 143.117987,19.2365896 C141.991997,20.1866435 141.429011,21.3829898 141.429011,22.8256644 C141.429011,24.8137403 142.90685,26.4147331 145.862574,27.6286909 L149.926673,29.2912771 C153.234269,30.6283901 155.653351,32.2601712 157.183994,34.1866695 C158.714636,36.1131679 159.479946,38.4750721 159.479946,41.2724532 C159.479946,45.0198883 158.23082,48.1163141 155.73253,50.5618233 C153.216646,53.0249262 150.09383,54.2564592 146.363989,54.2564592 C142.827677,54.2564592 139.907184,53.2096561 137.602424,51.1160187 C135.33285,49.0223813 133.916587,46.0754988 133.353593,42.275283 L139.581693,40.9029897 C139.86319,43.2957182 140.355804,44.949491 141.059547,45.8643578 C142.326286,47.623717 144.173585,48.5033834 146.601501,48.5033834 C148.519203,48.5033834 150.111399,47.8612269 151.378137,46.5768947 C152.644876,45.2925625 153.278236,43.6651796 153.278236,41.6946973 C153.278236,40.9029857 153.168277,40.1772609 152.948358,39.5175012 C152.728438,38.8577415 152.385368,38.2507717 151.919138,37.6965736 C151.452907,37.1423754 150.850336,36.6233723 150.111405,36.1395485 C149.372474,35.6557247 148.492808,35.1938998 147.472379,34.75406 L143.540231,33.1178642 C137.963063,30.7603229 135.17452,27.3120306 135.17452,22.7728839 C135.17452,19.7115989 136.344476,17.1517696 138.684424,15.0933194 C141.024372,13.0172755 143.936068,11.9792692 147.419599,11.9792692 C152.117088,11.9792692 155.785297,14.2664018 158.424336,18.8407357 L158.424336,18.8407357 Z M189.380106,18.5504429 L173.044537,18.5504429 L173.044537,28.3412279 L188.905081,28.3412279 L188.905081,34.1206939 L173.044537,34.1206939 L173.044537,47.7380659 L189.380106,47.7380659 L189.380106,53.517532 L166.895608,53.517532 L166.895608,12.7709769 L189.380106,12.7709769 L189.380106,18.5504429 Z M203.604454,12.7709769 L203.604454,47.7380659 L215.58563,47.7380659 L215.58563,53.517532 L197.455524,53.517532 L197.455524,12.7709769 L203.604454,12.7709769 Z M227.566806,12.7709769 L227.566806,53.517532 L221.417876,53.517532 L221.417876,12.7709769 L227.566806,12.7709769 Z M237.357591,53.517532 L237.357591,10 L267.073019,41.0877215 L267.073019,12.7709769 L273.221949,12.7709769 L273.221949,55.998216 L243.506521,24.9896654 L243.506521,53.517532 L237.357591,53.517532 Z M305.470842,18.5504429 L289.135273,18.5504429 L289.135273,28.3412279 L304.995817,28.3412279 L304.995817,34.1206939 L289.135273,34.1206939 L289.135273,47.7380659 L305.470842,47.7380659 L305.470842,53.517532 L282.986344,53.517532 L282.986344,12.7709769 L305.470842,12.7709769 L305.470842,18.5504429 Z" id="BASELINE" fill="#0F182B" sketch:type="MSShapeGroup"></path>
            </g>
        </g>
    </g>
</svg>